<svg xmlns="http://www.w3.org/2000/svg" viewBox="0 0 512 512" width="512" height="512" role="img" aria-label="GPX Slicer">
  <rect width="512" height="512" rx="112" fill="#F5F1EB"/>
  <svg x="104" y="130" width="304" height="251" viewBox="0 0 256 211" preserveAspectRatio="xMidYMid meet">
    <g fill="#145D49">
<g transform="matrix(1,0,0,1,-1245,-429.525)">
        <g transform="matrix(1,0,0,1,525.483,287.065)">
            <g transform="matrix(1,0,0,1,0.517008,0.934532)">
                <path d="M861.814,182.214C859.708,183.921 854.283,188.501 850.927,192.977C849.717,194.59 842.728,203.888 833.719,211.396C824.369,219.187 816.262,226.011 809.218,231.999C806.695,234.144 802.905,233.836 800.76,231.313C798.615,228.79 798.923,225 801.446,222.856C808.516,216.846 816.653,209.997 826.037,202.177C834.051,195.499 840.251,187.212 841.327,185.777C846.793,178.489 854.908,172.159 856.659,171.142L858.835,170.308L861.458,170.395L863.24,171.178L864.465,172.233L865.546,173.982L865.952,175.658L865.91,177.133L865.367,178.877L863.91,180.852C863.295,181.468 862.578,181.922 861.814,182.214ZM854.485,173.584C854.739,173.149 855.052,172.74 855.425,172.367C855.013,172.779 854.708,173.189 854.485,173.584Z"/>
                <path d="M723.415,291.042C723.622,290.837 724.415,290.05 725.21,289.277C727.889,286.673 733.669,281.405 749.289,269.69C753.118,266.819 753.909,264.82 768.956,251.182C771.41,248.958 775.207,249.145 777.431,251.598C779.655,254.052 779.468,257.849 777.015,260.073C761.348,274.272 760.475,276.3 756.489,279.29C736.579,294.223 733.367,298.169 731.648,299.777L728.991,301.667C726.037,303.165 722.423,301.983 720.925,299.03C719.452,296.126 720.57,292.583 723.415,291.042Z"/>
                <path d="M755.363,333.749C755.898,334.398 757.759,336.59 759.416,337.76C760.874,338.789 762.53,339.69 764.226,340.088C765.207,340.318 766.209,340.416 767.096,339.943C768.909,338.976 769.942,336.552 770.769,332.595C771.515,329.023 771.84,324.448 771.661,318.663C771.538,318.41 771.025,317.361 770.659,316.741C769.948,315.535 769.186,314.286 768.575,313.033C767.056,309.917 766.494,306.716 767.409,303.69C768.477,300.158 772.038,295.726 782.771,293.043C788.633,291.577 788.747,293.328 858.267,290.547C864.301,290.306 892.746,289.164 933.718,292.888C937.016,293.188 939.45,296.109 939.15,299.407C938.85,302.705 935.929,305.139 932.632,304.839C892.51,301.192 864.656,302.301 858.747,302.538C791.473,305.229 791.354,303.266 785.681,304.685C783.28,305.285 781.446,305.912 780.084,306.611C779.782,306.766 779.446,306.99 779.184,307.175C779.672,308.112 780.835,310.335 781.518,311.548C782.791,313.811 783.58,316.041 783.646,318.008C783.992,328.392 782.825,335.618 780.937,340.505C778.387,347.104 774.408,350.258 770.292,351.563C763.52,353.712 755.304,350.237 749.911,345.533C745.73,341.885 743.553,337.497 743.417,335.196C742.942,327.111 744.955,322.231 746.985,318.129C748.059,315.961 749.369,314.244 749.364,311.769C749.361,310.161 748.769,308.297 747.522,305.803C747.314,305.386 746.718,305.363 746.176,305.157C745.132,304.76 743.935,304.493 742.684,304.296C737.041,303.409 730.4,303.998 728.388,304.258C728.344,304.264 728.293,304.271 728.248,304.277C726.086,304.757 723.739,304.017 722.262,302.174C720.19,299.591 720.605,295.811 723.189,293.74L724.605,292.894L726.275,292.439C727.882,292.186 735.752,291.371 742.901,292.216C746.57,292.649 750.051,293.546 752.683,294.955C755.244,296.325 757.133,298.192 758.255,300.436C763.292,310.509 761.581,315.597 758.985,320.961C757.458,324.115 755.17,327.394 755.363,333.749Z"/>
                <path d="M857.813,176.928C854.595,176.147 852.617,172.9 853.398,169.682C854.18,166.464 857.427,164.486 860.645,165.267C874.061,168.525 885.674,178.082 895.797,191.031C909.842,208.996 921.157,233.557 931.578,254.397C939.716,270.675 940.591,291.456 940.718,294.764C940.845,298.073 938.262,300.863 934.953,300.99C931.644,301.118 928.854,298.535 928.727,295.226C928.615,292.321 927.988,274.05 920.844,259.764C910.767,239.609 899.926,215.796 886.343,198.421C878.047,187.809 868.809,179.599 857.813,176.928Z"/>
                <path d="M932.148,286.295C932.211,285.995 932.279,285.695 932.352,285.395C933.531,280.579 936.047,275.967 940.47,273.134C944.853,270.326 951.45,268.97 961.38,272.28L963.578,273.358C964.336,273.855 965.138,274.522 965.938,275.37C968.063,277.622 970.411,281.516 972.093,286.215C975.475,295.662 975.923,308.082 969.019,316.037C964.44,321.314 956.5,325.143 943.193,324.192L941.363,323.768L940.09,323.067C939.703,322.793 937.986,321.376 935.898,319.145C932.851,315.889 928.96,310.821 927.194,305.48C925.7,300.962 925.636,296.268 927.808,291.925C928.704,290.134 928.908,290.5 929.743,288.83C930.296,287.723 931.146,286.862 932.148,286.295ZM939.431,303.73C941.262,307.414 944.239,310.63 946.006,312.325C952.944,312.548 957.412,311.103 959.957,308.171C964.086,303.413 962.818,295.91 960.795,290.259C959.798,287.475 957.502,284.127 957.058,283.492C952.297,281.97 949.095,281.86 946.943,283.239C945.196,284.357 944.474,286.347 944.008,288.249C943.004,292.35 943.494,296.553 943.582,297.36C943.897,300.249 942.101,302.886 939.431,303.73Z"/>
                <path d="M881.679,153.581C876.755,153.387 873.035,153.683 870.253,154.415C868.475,154.883 867.218,155.44 866.468,156.294C865.608,157.273 865.741,158.548 865.876,159.73C866.167,162.28 867.071,164.741 867.511,166.536C867.888,168.074 868.02,169.389 867.956,170.37L867.216,173.202L866.468,174.396L865.398,175.487L864.12,176.306L862.819,176.794C859.619,177.644 856.33,175.737 855.48,172.536C855.144,171.274 855.238,169.997 855.671,168.863C855.269,167.418 854.566,164.791 854.22,162.885C853.243,157.502 853.813,151.755 858.376,147.414C862.001,143.965 869.003,141.042 882.356,141.599C884.51,141.689 887.483,142.694 890.887,145.004C896.292,148.672 903.79,156.06 911.974,165.691C930.394,187.369 952.664,220.565 962.93,245.812C967.799,257.788 969.873,268.22 968.461,275.28C967.812,278.527 964.648,280.636 961.401,279.987C958.154,279.337 956.045,276.174 956.694,272.927C957.783,267.483 955.568,259.565 951.813,250.332C941.958,226.096 920.512,194.272 902.829,173.461C896.51,166.025 890.704,160.015 886.101,156.375C884.344,154.986 881.944,153.719 881.679,153.581Z"/>
                <path d="M788.404,261.897L788.551,262.394L788.566,264.224L788.044,265.945L786.868,267.61C784.527,269.951 780.725,269.951 778.383,267.61C778.27,267.496 778.162,267.38 778.06,267.26C777.121,266.469 771.945,262.083 770.315,260.157C757.681,245.226 756.814,246.058 755.773,244.719C747.413,233.971 745.53,224.495 746.987,216.811C748.754,207.49 755.585,200.358 763.981,196.208C772.082,192.205 781.517,191.083 788.466,192.937C797.841,195.437 803.719,199.435 807.296,203.923C813.363,211.537 813.284,220.977 810.415,229.698C806.575,241.371 797.794,251.405 797.023,252.058C792.895,255.55 791.203,258.282 789.701,260.284C789.268,260.86 788.841,261.397 788.404,261.897ZM776.707,264.348C776.698,264.293 776.69,264.238 776.682,264.183C776.681,264.182 776.679,264.18 776.678,264.178C776.687,264.235 776.697,264.291 776.707,264.348ZM780.136,253.119C780.381,252.758 780.63,252.366 780.93,251.956C782.659,249.587 784.907,246.59 789.272,242.897L789.076,243.06C789.076,243.06 796.326,234.125 799.016,225.948C800.628,221.048 801.321,215.68 797.911,211.402C795.566,208.459 791.522,206.171 785.374,204.531C780.8,203.312 774.63,204.331 769.298,206.966C764.262,209.455 759.837,213.455 758.777,219.046C757.822,224.085 759.654,230.078 765.052,237.102C765.573,237.452 768.938,239.951 779.476,252.405C779.66,252.623 779.883,252.863 780.136,253.119Z"/>
                <path d="M781.95,209.358C788.15,209.194 791.903,211.635 793.962,214.443C796.641,218.097 796.992,223.372 794.921,228.315C792.172,234.878 785.34,240.336 777.669,239.483C771.555,238.804 765.545,232.175 764.841,225.076C764.459,221.225 765.49,217.393 768.296,214.372C770.661,211.824 774.489,209.683 780.509,209.281C781.001,209.248 781.484,209.276 781.95,209.358ZM777.864,221.913C777.474,222.11 777.171,222.366 776.96,222.704C776.415,223.577 776.841,224.679 777.3,225.606C777.727,226.47 778.181,227.466 778.994,227.557C781.314,227.814 783.021,225.664 783.853,223.679C784.075,223.149 784.231,222.607 784.273,222.081C784.288,221.885 784.391,221.684 784.285,221.539C784.122,221.317 783.762,221.424 783.355,221.381C782.226,221.262 780.854,221.402 779.203,221.769C778.754,221.869 778.305,221.916 777.864,221.913Z"/>
                <path d="M746.556,327.061C745.628,327.191 741.233,327.789 738.27,327.893C733.372,328.066 728.41,327.01 724.68,323.393C721.357,320.17 718.649,314.543 719.038,304.436C719.231,299.408 721.239,295.358 721.601,294.633C723.082,291.671 726.689,290.469 729.651,291.95C732.613,293.431 733.815,297.038 732.334,299.999C732.153,300.362 731.126,302.382 731.029,304.898C730.808,310.633 731.383,313.759 733.473,315.13C735.528,316.479 738.255,315.949 740.553,315.67C743.047,315.367 745.294,315.012 746.889,315.036L749.064,315.279L750.929,315.936C753.891,317.417 755.094,321.024 753.613,323.986C752.294,326.623 749.29,327.866 746.556,327.061Z"/>
                <path d="M945.872,314.639C948.775,313.375 952.197,314.594 953.63,317.459C955.111,320.421 953.908,324.028 950.946,325.509C949.202,326.381 943.777,327.187 936.074,327.32C910.936,327.755 856.604,324.285 850.595,325.287C823.521,329.799 785.918,324.842 778.775,323.913C778.47,323.873 778.138,323.832 777.985,323.813C776.457,323.712 774.966,323.029 773.876,321.789L773.091,320.657L772.603,319.444L772.389,318.124L772.497,316.654L773.33,314.587L774.942,312.909L776.369,312.173L778.15,311.829C778.267,311.824 779.021,311.844 780.323,312.013C787.117,312.897 822.874,317.741 848.622,313.45C854.009,312.552 897.301,314.974 925.292,315.322C934.931,315.442 945.372,314.676 945.872,314.639Z"/>
            </g>
        </g>
    </g>
    </g>
  </svg>
</svg>
